# xmcd
#
# Track frame offsets: 
#        150
#        11479
#        23747
#        33610
#        44127
#        54516
#        65275
#        73989
#        86385
#        96199
#        107156
#        119923
#        129690
#        146559
#        161315
#        173254
#        184172
#        192622
#        202723
#        211002
#        219039
#        232686
#        244157
#        255848
#        264916
#        276203
#        287625
#        299693
#
# Disc length: 4150 seconds
#
# Revision: 3
# Processed by: cddbd v1.5.2PL0 Copyright (c) Steve Scherf et al.
# Submitted via: ExactAudioCopy v1.3
#
DISCID=9510341c
DTITLE=Buck Owens and his Buckaroos - Tall Dark Stranger_CD2
DYEAR=2012
DGENRE=Country
TTITLE0=We Were Made for Each Other
TTITLE1=Everybody Needs Somebody
TTITLE2=Togetherness
TTITLE3=The Kansas City Song
TTITLE4=I'd Love to Be Your Man
TTITLE5=Together Again
TTITLE6=Fallin' for You
TTITLE7=Cryin' Time
TTITLE8=Foolin' Around
TTITLE9=Down in New Orleans
TTITLE10=The Wind Blows Every Day in Oklahoma
TTITLE11=Full Time Daddy
TTITLE12=The Great White Horse
TTITLE13=Black Texas Dirt
TTITLE14=Bring Back My Peace of Mind
TTITLE15=The Buckaroos - Guitar Pickin' Man
TTITLE16=The Buckaroos - Dublin Waltz
TTITLE17=The Buckaroos - I'd Love to Be Your Man
TTITLE18=The Buckaroos - Cajun Steel Guitar
TTITLE19=The Buckaroos - Fishin' Reel
TTITLE20=The Buckaroos - Potter's Field
TTITLE21=The Buckaroos - When I'm with You
TTITLE22=The Buckaroos - Pick-Nickin'
TTITLE23=The Buckaroos - Boot Hil
TTITLE24=The Buckaroos - Up On Cripple Creek
TTITLE25=(It's a Long Way To) London Town
TTITLE26=Scandinavian Polka
TTITLE27=Amsterdam
EXTD=
EXTT0=
EXTT1=
EXTT2=
EXTT3=
EXTT4=
EXTT5=
EXTT6=
EXTT7=
EXTT8=
EXTT9=
EXTT10=
EXTT11=
EXTT12=
EXTT13=
EXTT14=
EXTT15=
EXTT16=
EXTT17=
EXTT18=
EXTT19=
EXTT20=
EXTT21=
EXTT22=
EXTT23=
EXTT24=
EXTT25=
EXTT26=
EXTT27=
PLAYORDER=
